<?xml version="1.0" encoding="utf-8"?>
<!-- Generator: Adobe Illustrator 15.0.2, SVG Export Plug-In . SVG Version: 6.00 Build 0)  -->
<!DOCTYPE svg PUBLIC "-//W3C//DTD SVG 1.1//EN" "http://www.w3.org/Graphics/SVG/1.1/DTD/svg11.dtd">
<svg version="1.1" id="Layer_1" xmlns="http://www.w3.org/2000/svg" xmlns:xlink="http://www.w3.org/1999/xlink" x="0px" y="0px"
	 width="512px" height="942.48px" viewBox="0 0 512 942.48" enable-background="new 0 0 512 942.48" xml:space="preserve">
<path d="M304.768,942.48V825.187c68.937-11.826,120.7-36.854,155.29-75.149c34.591-38.251,51.896-83.735,51.919-136.453
	c0.688-52.495-13.822-96.16-43.554-131.028c-29.731-34.856-78.788-64.243-147.17-88.173c-50.854-17.617-87.529-33.98-110.028-49.123
	c-22.509-15.132-33.536-31.795-33.081-49.988c-0.544-17.052,6.646-32.217,21.544-45.484c14.899-13.269,40.736-20.269,77.523-21.001
	c44.907,0.832,81.206,5.88,108.896,15.177c27.667,9.285,48.368,17.839,62.08,25.659l33.592-130.507
	c-18.859-9.484-41.779-17.816-68.781-25.005c-26.979-7.178-59.374-11.493-97.137-12.936V0H203.026v109.229
	c-63.611,12.158-112.136,36.398-145.583,72.719C24.007,218.27,7.155,262.645,6.912,315.096
	c0.887,55.746,19.536,100.199,55.957,133.358s85.289,59.828,146.593,80.019c43.155,14.2,75.781,29.222,97.925,45.041
	c22.144,15.798,33.281,34.612,33.37,56.4c-0.844,22.897-12.47,40.647-34.923,53.184c-22.454,12.58-50.754,18.926-84.89,19.104
	c-37.286-0.466-71.877-5.658-103.76-15.598c-31.873-9.94-59.685-21.854-83.414-35.7L0,785.315
	c20.257,12.292,47.359,23.03,81.295,32.194c33.936,9.163,70.534,14.755,109.795,16.796V942.48H304.768z"/>
</svg>
